<svg version="1.1" viewBox="0.0 0.0 950.994750656168 124.41994750656168" fill="none" stroke="none" stroke-linecap="square" stroke-miterlimit="10" xmlns:xlink="http://www.w3.org/1999/xlink" xmlns="http://www.w3.org/2000/svg">
	<clipPath id="p.0">
		<path d="m0 0l950.99475 0l0 124.419945l-950.99475 0l0 -124.419945z" clip-rule="nonzero"/>
	</clipPath>
	<g clip-path="url(#p.0)">
		<path fill="#000000" fill-opacity="0.0" d="m0 0l950.99475 0l0 124.419945l-950.99475 0z" fill-rule="evenodd"/>
		<!--color-->
		<path fill="#121940" d="m-2.164489 -35.68504c-0.14391947 20.557304 -9.057743 111.97856 -0.86351705 123.34383c8.194225 11.3652725 34.80796 -48.245403 50.028873 -55.15223c15.220909 -6.906824 24.908573 13.101925 41.29659 13.711285c16.388016 0.60936356 41.46237 -13.710846 57.031494 -10.055115c15.569122 3.6557274 24.255905 27.267277 36.38321 31.989498c12.127289 4.7222214 27.039368 1.675415 36.38057 -3.656166c9.341202 -5.331585 9.833328 -21.174103 19.666672 -28.333332c9.833328 -7.159231 23.600616 -9.290903 39.333344 -14.622049c15.732697 -5.3311462 39.657898 -19.496937 55.06299 -17.364828c15.40506 2.1321082 25.56778 18.123796 37.36743 30.157478c11.799652 12.033684 17.206055 36.25591 33.43045 42.04462c16.224426 5.7887115 45.724854 -14.167103 63.916016 -7.312332c18.191162 6.854767 31.628601 40.215218 45.230957 48.44094c13.602356 8.225723 25.402893 9.139107 36.38324 0.9133835c10.980286 -8.225716 16.388 -36.71041 29.498657 -50.267715c13.110657 -13.557304 31.465881 -29.40026 49.165344 -31.076115c17.699524 -1.6758537 39.531494 25.602364 57.031494 21.021c17.5 -4.5813675 33.50702 -42.579617 47.968506 -48.509186c14.461548 -5.9295716 26.00177 2.1539803 38.800537 12.931759c12.798767 10.777777 25.577026 47.328087 37.992126 51.73491c12.415161 4.406822 24.843384 -17.727036 36.49872 -25.293964c11.655273 -7.566929 22.289124 -13.709534 33.433044 -20.10761c11.143921 -6.398075 24.507019 -25.836395 33.43042 -18.280838c8.923462 7.5555544 12.806702 51.82152 20.11029 63.61417c7.303589 11.792656 20.37445 22.699043 23.711243 7.141739c3.336853 -15.557312 -3.0751953 -83.737976 -3.6902466 -100.485565" fill-rule="evenodd"/>
	</g>
</svg>