<svg version="1.1" viewBox="0.0 0.0 950.5958005249344 138.62992125984252" fill="none" stroke="none" stroke-linecap="square" stroke-miterlimit="10" xmlns:xlink="http://www.w3.org/1999/xlink" xmlns="http://www.w3.org/2000/svg"><clipPath id="p.0"><path d="m0 0l950.5958 0l0 138.62993l-950.5958 0l0 -138.62993z" clip-rule="nonzero"/></clipPath><g clip-path="url(#p.0)"><path fill="#000000" fill-opacity="0.0" d="m0 0l950.5958 0l0 138.62993l-950.5958 0z" fill-rule="evenodd"/><!--color--><path fill="#121940" d="m-0.620158 -21.56114c0.076995075 21.521315 -7.732196 117.7625 0.46197036 129.12788c8.194167 11.365387 33.70276 -53.064594 48.70303 -60.935528c15.000271 -7.8709373 24.910267 13.100616 41.298603 13.709915c16.388329 0.6092987 41.46248 -13.709915 57.031403 -10.054131c15.568909 3.6557846 24.25473 27.266666 36.382095 31.98885c12.127365 4.7221756 27.040756 1.6756821 36.382095 -3.6557922c9.341354 -5.3314743 9.833008 -21.17369 19.666 -28.333057c9.833008 -7.1593666 23.599197 -9.291668 39.332016 -14.623142c15.732788 -5.331476 39.65976 -19.498005 55.06479 -17.365704c15.405029 2.1323013 25.565796 18.125763 37.365387 30.159512c11.799622 12.033749 17.207764 36.25441 33.43222 42.042976c16.224426 5.7885666 45.72345 -14.166527 63.91449 -7.311569c18.19104 6.8549576 31.629486 40.21556 45.23181 48.441322c13.602295 8.225754 25.401917 9.138977 36.38208 0.91322327c10.980164 -8.225754 16.388367 -36.71054 29.499023 -50.26777c13.110657 -13.557236 31.465576 -29.399937 49.164978 -31.075623c17.699402 -1.6756897 38.840332 24.829475 57.031433 21.021484c18.19104 -3.8079834 37.037598 -35.491463 52.11487 -43.869427c15.0772705 -8.377962 25.401917 -16.451996 38.348694 -6.398346c12.946777 10.053654 27.53241 59.86529 39.33203 66.720245c11.799561 6.854965 20.649292 -17.974037 31.465576 -25.590496c10.816284 -7.6164627 22.288147 -13.7104 33.43219 -20.108265c11.144104 -6.3978653 23.435303 -22.696217 33.43219 -18.278929c9.996887 4.417288 19.629456 37.08313 26.549133 44.78266c6.9196777 7.699524 12.705444 13.833313 14.968872 1.4144897c2.2633667 -12.418819 -1.1571045 -63.272846 -1.3884888 -75.927414" fill-rule="evenodd"/></g></svg>